<svg width="30" height="30" viewBox="0 0 30 30" fill="none" xmlns="http://www.w3.org/2000/svg">
<path fill-rule="evenodd" clip-rule="evenodd" d="M10.465 4.066C11.638 4.012 12.012 4 15 4C17.988 4 18.362 4.013 19.534 4.066C20.706 4.119 21.506 4.306 22.206 4.577C22.939 4.854 23.604 5.287 24.154 5.847C24.714 6.396 25.146 7.06 25.422 7.794C25.694 8.494 25.88 9.294 25.934 10.464C25.988 11.639 26 12.013 26 15C26 17.988 25.987 18.362 25.934 19.535C25.881 20.705 25.694 21.505 25.422 22.205C25.146 22.9391 24.7133 23.6042 24.154 24.154C23.604 24.714 22.939 25.146 22.206 25.422C21.506 25.694 20.706 25.88 19.536 25.934C18.362 25.988 17.988 26 15 26C12.012 26 11.638 25.987 10.465 25.934C9.295 25.881 8.495 25.694 7.795 25.422C7.06092 25.146 6.39582 24.7133 5.846 24.154C5.28638 23.6047 4.85331 22.9399 4.577 22.206C4.306 21.506 4.12 20.706 4.066 19.536C4.012 18.361 4 17.987 4 15C4 12.012 4.013 11.638 4.066 10.466C4.119 9.294 4.306 8.494 4.577 7.794C4.85372 7.06008 5.28712 6.39531 5.847 5.846C6.39604 5.2865 7.06047 4.85344 7.794 4.577C8.494 4.306 9.294 4.12 10.464 4.066H10.465ZM19.445 6.046C18.285 5.993 17.937 5.982 15 5.982C12.063 5.982 11.715 5.993 10.555 6.046C9.482 6.095 8.9 6.274 8.512 6.425C7.999 6.625 7.632 6.862 7.247 7.247C6.88205 7.60205 6.60118 8.03428 6.425 8.512C6.274 8.9 6.095 9.482 6.046 10.555C5.993 11.715 5.982 12.063 5.982 15C5.982 17.937 5.993 18.285 6.046 19.445C6.095 20.518 6.274 21.1 6.425 21.488C6.601 21.965 6.882 22.398 7.247 22.753C7.602 23.118 8.035 23.399 8.512 23.575C8.9 23.726 9.482 23.905 10.555 23.954C11.715 24.007 12.062 24.018 15 24.018C17.938 24.018 18.285 24.007 19.445 23.954C20.518 23.905 21.1 23.726 21.488 23.575C22.001 23.375 22.368 23.138 22.753 22.753C23.118 22.398 23.399 21.965 23.575 21.488C23.726 21.1 23.905 20.518 23.954 19.445C24.007 18.285 24.018 17.937 24.018 15C24.018 12.063 24.007 11.715 23.954 10.555C23.905 9.482 23.726 8.9 23.575 8.512C23.375 7.999 23.138 7.632 22.753 7.247C22.3979 6.88207 21.9657 6.60121 21.488 6.425C21.1 6.274 20.518 6.095 19.445 6.046ZM13.595 18.391C14.3797 18.7176 15.2534 18.7617 16.0669 18.5157C16.8805 18.2697 17.5834 17.7489 18.0556 17.0422C18.5278 16.3356 18.7401 15.4869 18.656 14.6411C18.572 13.7953 18.197 13.005 17.595 12.405C17.2112 12.0215 16.7472 11.7278 16.2363 11.5451C15.7255 11.3625 15.1804 11.2954 14.6405 11.3486C14.1006 11.4019 13.5792 11.5742 13.1138 11.8531C12.6485 12.1321 12.2507 12.5107 11.9493 12.9619C11.6479 13.413 11.4502 13.9253 11.3705 14.462C11.2908 14.9986 11.3312 15.5463 11.4885 16.0655C11.6459 16.5847 11.9165 17.0626 12.2807 17.4647C12.645 17.8668 13.0938 18.1832 13.595 18.391ZM11.002 11.002C11.527 10.477 12.1503 10.0605 12.8363 9.77636C13.5223 9.49222 14.2575 9.34597 15 9.34597C15.7425 9.34597 16.4777 9.49222 17.1637 9.77636C17.8497 10.0605 18.473 10.477 18.998 11.002C19.523 11.527 19.9395 12.1503 20.2236 12.8363C20.5078 13.5223 20.654 14.2575 20.654 15C20.654 15.7425 20.5078 16.4777 20.2236 17.1637C19.9395 17.8497 19.523 18.473 18.998 18.998C17.9377 20.0583 16.4995 20.654 15 20.654C13.5005 20.654 12.0623 20.0583 11.002 18.998C9.94166 17.9377 9.34597 16.4995 9.34597 15C9.34597 13.5005 9.94166 12.0623 11.002 11.002ZM21.908 10.188C22.0381 10.0653 22.1423 9.91768 22.2143 9.75397C22.2863 9.59027 22.3248 9.41377 22.3274 9.23493C22.33 9.05609 22.2967 8.87855 22.2295 8.71281C22.1622 8.54707 22.0624 8.39651 21.936 8.27004C21.8095 8.14357 21.6589 8.04376 21.4932 7.97652C21.3275 7.90928 21.1499 7.87598 20.9711 7.87858C20.7922 7.88119 20.6157 7.91965 20.452 7.9917C20.2883 8.06374 20.1407 8.1679 20.018 8.298C19.7793 8.55103 19.6486 8.88712 19.6537 9.23493C19.6588 9.58274 19.7992 9.91488 20.0452 10.1608C20.2911 10.4068 20.6233 10.5472 20.9711 10.5523C21.3189 10.5574 21.655 10.4267 21.908 10.188Z" fill="#111112"/>
</svg>
