<svg width="30" height="30" viewBox="0 0 30 30" fill="none" xmlns="http://www.w3.org/2000/svg">
<path d="M28.75 3.76251C28.75 3.76251 26.2275 5.25251 24.825 5.67501C24.0722 4.8094 23.0717 4.19587 21.9588 3.91742C20.8459 3.63896 19.6744 3.709 18.6026 4.11808C17.5308 4.52715 16.6106 5.25551 15.9662 6.20465C15.3219 7.1538 14.9846 8.27793 15 9.42501V10.675C12.8033 10.732 10.6266 10.2448 8.66376 9.25682C6.70093 8.26886 5.0129 6.8108 3.75 5.01251C3.75 5.01251 -1.25 16.2625 10 21.2625C7.42566 23.01 4.35895 23.8862 1.25 23.7625C12.5 30.0125 26.25 23.7625 26.25 9.38751C26.25 9.04001 26.215 8.69251 26.15 8.35001C27.425 7.09251 28.75 3.76251 28.75 3.76251Z" stroke="#111112" stroke-width="1.6" stroke-linecap="round" stroke-linejoin="round"/>
</svg>
